<?xml version="1.0" encoding="utf-8"?>
<!-- Generator: Adobe Illustrator 25.4.1, SVG Export Plug-In . SVG Version: 6.00 Build 0)  -->
<svg version="1.1" xmlns="http://www.w3.org/2000/svg" xmlns:xlink="http://www.w3.org/1999/xlink" x="0px" y="0px"
	 viewBox="0 0 1560.5 296.7" style="enable-background:new 0 0 1560.5 296.7;" xml:space="preserve">
<style type="text/css">
	.st0{fill:#7D2AE7;}
	.st1{fill:url(#SVGID_1_);}
	.st2{fill:url(#SVGID_00000180349367743515301250000008416080053387404416_);}
	.st3{fill:url(#SVGID_00000135663649765187251090000015887766659609102478_);}
	.st4{fill:url(#SVGID_00000056424729492812294160000017971214008525863835_);}
	.st5{fill:url(#SVGID_00000005967493967018366990000010330943937338520511_);}
	.st6{fill:url(#SVGID_00000087378584682782275010000015501199613513533595_);}
	.st7{fill:url(#SVGID_00000147182969355914985500000007797400012716435104_);}
</style>
<g id="图层_4">
	<path class="st0" d="M1012.5,82c-5,7.4-18.5,31.9-17.7,68.7c1.1,50.5,68.3,69.1,107,23.6c40.1-47.1,18.5-94.7-18.4-97.3
		c-27.9-2-46.5,14.1-54.3,22.6c0-0.1,0.1-0.1,0.1-0.2C1036.8,81.2,1020,71,1012.5,82z M1079.8,103.9c39.2,13.1,14.1,78.2-27.3,71.9
		c-27.8-4.2-33-25.4-31.2-45.3C1029.1,111.9,1060.2,97.3,1079.8,103.9z M1222.7,29.8c-8.7,0-33.3-3.8-52-4.4
		c8,17.7,24,61.4,22,125.7c-2.8,91.1-53.5,140.5-124.3,140.8c-64.2,0.3-100.2-41-105.2-56.5c-4.5-14.3,5.7-13.9,10.1-9.2
		c8.7,9.1,15.8,16.9,31.2,24c51.1,23.5,143.2,10.8,152.6-78c8.2-76.7-14.2-129.7-23.3-145.7c-59.6,1.1-125,16.9-158.3,29.7
		c-28,10.7-31.4-6.9-30.8-14.6c0.4-5.1,4.5-16.7,18-20.4c112.5-30.3,235.6-11.2,252.6-8.5C1233.3,15.6,1231.5,29.8,1222.7,29.8z
		 M1299.2,49.8c18.5-6.3,50.4-15.2,73.4-19.4c-38.6,26.7-90.2,100.6-50.9,159c45.1,67,172.5,39.3,175.1-47
		c2.5-84.4-97.6-89.4-123.5-42.6c-22.1,39.9,8.8,65.2,27.5,66.1c2.5,7.1,6.5,11.3,9.7,10.9c5.8-0.9,4.6-6,2.3-12.7
		c5.4-2.3,23.7-11.5,27.6-30.4c4.6-22.2-24.8-31.5-37.3-3.6c-3.2,7.1-4.5,14-4.6,20.2c-0.1,0-0.1,0-0.2,0
		c-34-10.8-6.3-72.7,46.4-50.9c47.8,19.8,16.2,115.3-66.1,89.6c-79.2-24.7-18-155.9,53.5-167c25.6-1.2,55.7,0.5,76.5,3.7
		c17.1,2.6,17.9-12.2,5.9-15.9c-33.6-10.4-149.8-17.4-218.7,4.6c-11.3,3.6-19.2,11.4-19.7,22.3C1275.6,47.3,1285.9,54.4,1299.2,49.8
		z M1424.4,122.1c12.3,1.3,1.9,23.6-14.2,28.3C1410.4,138.2,1414.7,121.1,1424.4,122.1z M1557.5,236.3c-5.5-5.3-10.9-11-15.6-17.5
		c4.2-7.3,16-30.5,13-56.9c-3.6-32-37.4-29.4-39.6,10.4c-0.9,16.5,0.9,29.8,4.5,40.5c-21.5,26.4-65.7,51.2-120.4,49.8
		c-53.3-1.4-105.8-20.2-133-64.9c-6.5-10.7-15.3-10.6-15.4,0.2c-0.2,20.3,46.3,96.7,146.8,98.7c69.2,1.3,112.3-28.7,134.5-61.5
		c4.6,5.4,9.8,9.6,15.2,13C1559,255.3,1564.2,242.8,1557.5,236.3z M1534.3,151.1c7.3,0.2,9.4,20.4-4,45.6c-0.2-0.7-0.5-1.3-0.7-2
		C1524,176.7,1526.2,150.9,1534.3,151.1z"/>
	
		<radialGradient id="SVGID_1_" cx="1290.967" cy="174.8418" r="244.178" gradientTransform="matrix(0.7918 -0.6108 0.4073 0.5279 197.6002 871.0711)" gradientUnits="userSpaceOnUse">
		<stop  offset="0" style="stop-color:#6420FF"/>
		<stop  offset="1" style="stop-color:#6420FF;stop-opacity:0"/>
	</radialGradient>
	<path class="st1" d="M1012.5,82c-5,7.4-18.5,31.9-17.7,68.7c1.1,50.5,68.3,69.1,107,23.6c40.1-47.1,18.5-94.7-18.4-97.3
		c-27.9-2-46.5,14.1-54.3,22.6c0-0.1,0.1-0.1,0.1-0.2C1036.8,81.2,1020,71,1012.5,82z M1079.8,103.9c39.2,13.1,14.1,78.2-27.3,71.9
		c-27.8-4.2-33-25.4-31.2-45.3C1029.1,111.9,1060.2,97.3,1079.8,103.9z M1222.7,29.8c-8.7,0-33.3-3.8-52-4.4
		c8,17.7,24,61.4,22,125.7c-2.8,91.1-53.5,140.5-124.3,140.8c-64.2,0.3-100.2-41-105.2-56.5c-4.5-14.3,5.7-13.9,10.1-9.2
		c8.7,9.1,15.8,16.9,31.2,24c51.1,23.5,143.2,10.8,152.6-78c8.2-76.7-14.2-129.7-23.3-145.7c-59.6,1.1-125,16.9-158.3,29.7
		c-28,10.7-31.4-6.9-30.8-14.6c0.4-5.1,4.5-16.7,18-20.4c112.5-30.3,235.6-11.2,252.6-8.5C1233.3,15.6,1231.5,29.8,1222.7,29.8z
		 M1299.2,49.8c18.5-6.3,50.4-15.2,73.4-19.4c-38.6,26.7-90.2,100.6-50.9,159c45.1,67,172.5,39.3,175.1-47
		c2.5-84.4-97.6-89.4-123.5-42.6c-22.1,39.9,8.8,65.2,27.5,66.1c2.5,7.1,6.5,11.3,9.7,10.9c5.8-0.9,4.6-6,2.3-12.7
		c5.4-2.3,23.7-11.5,27.6-30.4c4.6-22.2-24.8-31.5-37.3-3.6c-3.2,7.1-4.5,14-4.6,20.2c-0.1,0-0.1,0-0.2,0
		c-34-10.8-6.3-72.7,46.4-50.9c47.8,19.8,16.2,115.3-66.1,89.6c-79.2-24.7-18-155.9,53.5-167c25.6-1.2,55.7,0.5,76.5,3.7
		c17.1,2.6,17.9-12.2,5.9-15.9c-33.6-10.4-149.8-17.4-218.7,4.6c-11.3,3.6-19.2,11.4-19.7,22.3C1275.6,47.3,1285.9,54.4,1299.2,49.8
		z M1424.4,122.1c12.3,1.3,1.9,23.6-14.2,28.3C1410.4,138.2,1414.7,121.1,1424.4,122.1z M1557.5,236.3c-5.5-5.3-10.9-11-15.6-17.5
		c4.2-7.3,16-30.5,13-56.9c-3.6-32-37.4-29.4-39.6,10.4c-0.9,16.5,0.9,29.8,4.5,40.5c-21.5,26.4-65.7,51.2-120.4,49.8
		c-53.3-1.4-105.8-20.2-133-64.9c-6.5-10.7-15.3-10.6-15.4,0.2c-0.2,20.3,46.3,96.7,146.8,98.7c69.2,1.3,112.3-28.7,134.5-61.5
		c4.6,5.4,9.8,9.6,15.2,13C1559,255.3,1564.2,242.8,1557.5,236.3z M1534.3,151.1c7.3,0.2,9.4,20.4-4,45.6c-0.2-0.7-0.5-1.3-0.7-2
		C1524,176.7,1526.2,150.9,1534.3,151.1z"/>
	
		<radialGradient id="SVGID_00000060028215651910874590000016386830333462605219_" cx="991.4758" cy="235.9612" r="244.6591" gradientTransform="matrix(0.7219 -0.692 0.6009 0.6269 133.9097 774.1016)" gradientUnits="userSpaceOnUse">
		<stop  offset="0" style="stop-color:#6420FF"/>
		<stop  offset="1" style="stop-color:#6420FF;stop-opacity:0"/>
	</radialGradient>
	<path style="fill:url(#SVGID_00000060028215651910874590000016386830333462605219_);" d="M1012.5,82c-5,7.4-18.5,31.9-17.7,68.7
		c1.1,50.5,68.3,69.1,107,23.6c40.1-47.1,18.5-94.7-18.4-97.3c-27.9-2-46.5,14.1-54.3,22.6c0-0.1,0.1-0.1,0.1-0.2
		C1036.8,81.2,1020,71,1012.5,82z M1079.8,103.9c39.2,13.1,14.1,78.2-27.3,71.9c-27.8-4.2-33-25.4-31.2-45.3
		C1029.1,111.9,1060.2,97.3,1079.8,103.9z M1222.7,29.8c-8.7,0-33.3-3.8-52-4.4c8,17.7,24,61.4,22,125.7
		c-2.8,91.1-53.5,140.5-124.3,140.8c-64.2,0.3-100.2-41-105.2-56.5c-4.5-14.3,5.7-13.9,10.1-9.2c8.7,9.1,15.8,16.9,31.2,24
		c51.1,23.5,143.2,10.8,152.6-78c8.2-76.7-14.2-129.7-23.3-145.7c-59.6,1.1-125,16.9-158.3,29.7c-28,10.7-31.4-6.9-30.8-14.6
		c0.4-5.1,4.5-16.7,18-20.4c112.5-30.3,235.6-11.2,252.6-8.5C1233.3,15.6,1231.5,29.8,1222.7,29.8z M1299.2,49.8
		c18.5-6.3,50.4-15.2,73.4-19.4c-38.6,26.7-90.2,100.6-50.9,159c45.1,67,172.5,39.3,175.1-47c2.5-84.4-97.6-89.4-123.5-42.6
		c-22.1,39.9,8.8,65.2,27.5,66.1c2.5,7.1,6.5,11.3,9.7,10.9c5.8-0.9,4.6-6,2.3-12.7c5.4-2.3,23.7-11.5,27.6-30.4
		c4.6-22.2-24.8-31.5-37.3-3.6c-3.2,7.1-4.5,14-4.6,20.2c-0.1,0-0.1,0-0.2,0c-34-10.8-6.3-72.7,46.4-50.9
		c47.8,19.8,16.2,115.3-66.1,89.6c-79.2-24.7-18-155.9,53.5-167c25.6-1.2,55.7,0.5,76.5,3.7c17.1,2.6,17.9-12.2,5.9-15.9
		c-33.6-10.4-149.8-17.4-218.7,4.6c-11.3,3.6-19.2,11.4-19.7,22.3C1275.6,47.3,1285.9,54.4,1299.2,49.8z M1424.4,122.1
		c12.3,1.3,1.9,23.6-14.2,28.3C1410.4,138.2,1414.7,121.1,1424.4,122.1z M1557.5,236.3c-5.5-5.3-10.9-11-15.6-17.5
		c4.2-7.3,16-30.5,13-56.9c-3.6-32-37.4-29.4-39.6,10.4c-0.9,16.5,0.9,29.8,4.5,40.5c-21.5,26.4-65.7,51.2-120.4,49.8
		c-53.3-1.4-105.8-20.2-133-64.9c-6.5-10.7-15.3-10.6-15.4,0.2c-0.2,20.3,46.3,96.7,146.8,98.7c69.2,1.3,112.3-28.7,134.5-61.5
		c4.6,5.4,9.8,9.6,15.2,13C1559,255.3,1564.2,242.8,1557.5,236.3z M1534.3,151.1c7.3,0.2,9.4,20.4-4,45.6c-0.2-0.7-0.5-1.3-0.7-2
		C1524,176.7,1526.2,150.9,1534.3,151.1z"/>
</g>
<g id="图层_1">
	<path class="st0" d="M892.4,203.3c-1.5,0-2.9,1-3.6,3.1c-9.2,26.3-21.7,41.9-31.9,41.9c-5.9,0-8.3-6.6-8.3-16.8
		c0-25.7,15.4-80.3,23.2-105.2c0.9-3,1.5-5.7,1.5-8c0-7.2-4-10.8-13.7-10.8c-10.6,0-21.9,4.1-33,23.5c-3.8-17.1-15.4-24.5-31.5-24.5
		c-18.6,0-36.7,12-51.5,31.5c-14.8,19.5-32.3,25.8-45.4,22.7c9.4-23.1,12.9-40.3,12.9-53.2c0-20.1-9.9-32.2-26-32.2
		c-24.4,0-38.5,23.3-38.5,47.8c0,18.9,8.6,38.4,27.5,47.8c-15.8,35.8-38.9,68.1-47.7,68.1c-11.3,0-14.6-55.4-14-95
		c0.4-22.7,2.3-23.9,2.3-30.8c0-4-2.6-6.6-12.9-6.6c-24,0-31.4,20.3-32.5,43.6c-0.4,8.9-1.8,17.7-4.1,26.2
		c-10,35.8-30.7,62.9-44.2,62.9c-6.2,0-8-6.2-8-14.4c0-25.7,14.4-57.9,14.4-85.4c0-20.2-8.9-32.9-25.5-32.9
		c-19.6,0-45.6,23.4-70.2,67.1c8.1-33.5,11.4-66-12.5-66c-5.2,0.1-10.3,1.4-14.9,3.9c-3.1,1.5-5.1,4.7-4.9,8.2
		c2.3,35.7-28.8,127.1-58.2,127.1c-5.3,0-8-5.8-8-15.1c0-25.8,15.4-80.2,23.1-105.2c1-3.2,1.5-6,1.5-8.4c0-6.8-4.2-10.3-13.8-10.3
		c-10.5,0-21.9,4-32.9,23.4c-3.9-17.1-15.4-24.5-31.5-24.5c-26.5,0-56,28-69,64.5c-17.4,48.7-52.4,95.7-99.6,95.7
		c-42.8,0-65.4-35.6-65.4-91.9C45.7,93.4,105.4,27,149.6,27c21.2,0,31.3,13.5,31.3,34.1c0,25-14,36.7-14,46.2c0,2.9,2.4,5.8,7.2,5.8
		c19.2,0,41.9-22.6,41.9-53.4S191,6.3,146.7,6.3C73.6,6.3,0,79.9,0,174.2c0,75,37,120.3,101.1,120.3c43.7,0,81.8-34,102.4-73.6
		c2.3,32.8,17.3,50,40,50c20.2,0,36.6-12,49.1-33.2c4.8,22.2,17.6,33,34.1,33c19,0,34.9-12,50.1-34.4c-0.2,17.6,3.8,34.1,19,34.1
		c7.2,0,15.8-1.7,17.3-8c16-66.3,55.7-120.5,67.8-120.5c3.6,0,4.6,3.5,4.6,7.5c0,18-12.7,55-12.7,78.5c0,25.5,10.8,42.3,33.2,42.3
		c24.8,0,50-30.4,66.8-74.8c5.3,41.5,16.6,74.9,34.4,74.9c21.8,0,60.6-46,84.1-94.6c9.2,1.2,23,0.9,36.3-8.5c-5.7,14.3-9,30-9,45.7
		c0,45.2,21.6,57.8,40.1,57.8c20.2,0,36.5-12,49.1-33.2c4.1,19.1,14.7,32.9,34.1,32.9c30.4,0,56.7-31,56.7-56.5
		C898.6,207.4,895.8,203.3,892.4,203.3z M261.9,245.9c-12.3,0-17.1-12.4-17.1-30.8c0-32,21.9-85.4,45-85.4
		c10.1,0,13.9,11.9,13.9,26.5C303.8,188.6,283,245.9,261.9,245.9z M682.1,150.4c-7.3-8.7-10-20.6-10-31.1c0-13,4.8-24,10.5-24
		c5.7,0,7.5,5.6,7.5,13.4C690.1,121.7,685.4,140.8,682.1,150.4z M777.2,245.9c-12.3,0-17.1-14.2-17.1-30.8
		c0-30.9,21.9-85.4,45.2-85.4c10.1,0,13.7,11.8,13.7,26.5C819.1,188.6,798.6,245.9,777.2,245.9z"/>
	
		<radialGradient id="SVGID_00000111159589195920415800000012760299092555981246_" cx="-163.5997" cy="714.2508" r="0.4493" gradientTransform="matrix(420.0004 -432 -287.1004 -279.1257 274233.7188 129016.4531)" gradientUnits="userSpaceOnUse">
		<stop  offset="0" style="stop-color:#6420FF"/>
		<stop  offset="1" style="stop-color:#6420FF;stop-opacity:0"/>
	</radialGradient>
	<path style="fill:url(#SVGID_00000111159589195920415800000012760299092555981246_);" d="M892.4,203.3c-1.5,0-2.9,1-3.6,3.1
		c-9.2,26.3-21.7,41.9-31.9,41.9c-5.9,0-8.3-6.6-8.3-16.8c0-25.7,15.4-80.3,23.2-105.2c0.9-3,1.5-5.7,1.5-8c0-7.2-4-10.8-13.7-10.8
		c-10.6,0-21.9,4.1-33,23.5c-3.8-17.1-15.4-24.5-31.5-24.5c-18.6,0-36.7,12-51.5,31.5c-14.8,19.5-32.3,25.8-45.4,22.7
		c9.4-23.1,12.9-40.3,12.9-53.2c0-20.1-9.9-32.2-26-32.2c-24.4,0-38.5,23.3-38.5,47.8c0,18.9,8.6,38.4,27.5,47.8
		c-15.8,35.8-38.9,68.1-47.7,68.1c-11.3,0-14.6-55.4-14-95c0.4-22.7,2.3-23.9,2.3-30.8c0-4-2.6-6.6-12.9-6.6
		c-24,0-31.4,20.3-32.5,43.6c-0.4,8.9-1.8,17.7-4.1,26.2c-10,35.8-30.7,62.9-44.2,62.9c-6.2,0-8-6.2-8-14.4
		c0-25.7,14.4-57.9,14.4-85.4c0-20.2-8.9-32.9-25.5-32.9c-19.6,0-45.6,23.4-70.2,67.1c8.1-33.5,11.4-66-12.5-66
		c-5.2,0.1-10.3,1.4-14.9,3.9c-3.1,1.5-5.1,4.7-4.9,8.2c2.3,35.7-28.8,127.1-58.2,127.1c-5.3,0-8-5.8-8-15.1
		c0-25.8,15.4-80.2,23.1-105.2c1-3.2,1.5-6,1.5-8.4c0-6.8-4.2-10.3-13.8-10.3c-10.5,0-21.9,4-32.9,23.4
		c-3.9-17.1-15.4-24.5-31.5-24.5c-26.5,0-56,28-69,64.5c-17.4,48.7-52.4,95.7-99.6,95.7c-42.8,0-65.4-35.6-65.4-91.9
		C45.7,93.4,105.4,27,149.6,27c21.2,0,31.3,13.5,31.3,34.1c0,25-14,36.7-14,46.2c0,2.9,2.4,5.8,7.2,5.8c19.2,0,41.9-22.6,41.9-53.4
		S191,6.3,146.7,6.3C73.6,6.3,0,79.9,0,174.2c0,75,37,120.3,101.1,120.3c43.7,0,81.8-34,102.4-73.6c2.3,32.8,17.3,50,40,50
		c20.2,0,36.6-12,49.1-33.2c4.8,22.2,17.6,33,34.1,33c19,0,34.9-12,50.1-34.4c-0.2,17.6,3.8,34.1,19,34.1c7.2,0,15.8-1.7,17.3-8
		c16-66.3,55.7-120.5,67.8-120.5c3.6,0,4.6,3.5,4.6,7.5c0,18-12.7,55-12.7,78.5c0,25.5,10.8,42.3,33.2,42.3
		c24.8,0,50-30.4,66.8-74.8c5.3,41.5,16.6,74.9,34.4,74.9c21.8,0,60.6-46,84.1-94.6c9.2,1.2,23,0.9,36.3-8.5c-5.7,14.3-9,30-9,45.7
		c0,45.2,21.6,57.8,40.1,57.8c20.2,0,36.5-12,49.1-33.2c4.1,19.1,14.7,32.9,34.1,32.9c30.4,0,56.7-31,56.7-56.5
		C898.6,207.4,895.8,203.3,892.4,203.3z M261.9,245.9c-12.3,0-17.1-12.4-17.1-30.8c0-32,21.9-85.4,45-85.4
		c10.1,0,13.9,11.9,13.9,26.5C303.8,188.6,283,245.9,261.9,245.9z M682.1,150.4c-7.3-8.7-10-20.6-10-31.1c0-13,4.8-24,10.5-24
		c5.7,0,7.5,5.6,7.5,13.4C690.1,121.7,685.4,140.8,682.1,150.4z M777.2,245.9c-12.3,0-17.1-14.2-17.1-30.8
		c0-30.9,21.9-85.4,45.2-85.4c10.1,0,13.7,11.8,13.7,26.5C819.1,188.6,798.6,245.9,777.2,245.9z"/>
	
		<radialGradient id="SVGID_00000174577741276938146900000003287980903354800265_" cx="-163.0318" cy="713.3669" r="0.4493" gradientTransform="matrix(1167.999 103.9999 82.8902 -930.921 131311.375 681241.625)" gradientUnits="userSpaceOnUse">
		<stop  offset="0.25" style="stop-color:#00C4CC"/>
		<stop  offset="1" style="stop-color:#00C4CC;stop-opacity:0"/>
	</radialGradient>
	<path style="fill:url(#SVGID_00000174577741276938146900000003287980903354800265_);" d="M892.4,203.3c-1.5,0-2.9,1-3.6,3.1
		c-9.2,26.3-21.7,41.9-31.9,41.9c-5.9,0-8.3-6.6-8.3-16.8c0-25.7,15.4-80.3,23.2-105.2c0.9-3,1.5-5.7,1.5-8c0-7.2-4-10.8-13.7-10.8
		c-10.6,0-21.9,4.1-33,23.5c-3.8-17.1-15.4-24.5-31.5-24.5c-18.6,0-36.7,12-51.5,31.5c-14.8,19.5-32.3,25.8-45.4,22.7
		c9.4-23.1,12.9-40.3,12.9-53.2c0-20.1-9.9-32.2-26-32.2c-24.4,0-38.5,23.3-38.5,47.8c0,18.9,8.6,38.4,27.5,47.8
		c-15.8,35.8-38.9,68.1-47.7,68.1c-11.3,0-14.6-55.4-14-95c0.4-22.7,2.3-23.9,2.3-30.8c0-4-2.6-6.6-12.9-6.6
		c-24,0-31.4,20.3-32.5,43.6c-0.4,8.9-1.8,17.7-4.1,26.2c-10,35.8-30.7,62.9-44.2,62.9c-6.2,0-8-6.2-8-14.4
		c0-25.7,14.4-57.9,14.4-85.4c0-20.2-8.9-32.9-25.5-32.9c-19.6,0-45.6,23.4-70.2,67.1c8.1-33.5,11.4-66-12.5-66
		c-5.2,0.1-10.3,1.4-14.9,3.9c-3.1,1.5-5.1,4.7-4.9,8.2c2.3,35.7-28.8,127.1-58.2,127.1c-5.3,0-8-5.8-8-15.1
		c0-25.8,15.4-80.2,23.1-105.2c1-3.2,1.5-6,1.5-8.4c0-6.8-4.2-10.3-13.8-10.3c-10.5,0-21.9,4-32.9,23.4
		c-3.9-17.1-15.4-24.5-31.5-24.5c-26.5,0-56,28-69,64.5c-17.4,48.7-52.4,95.7-99.6,95.7c-42.8,0-65.4-35.6-65.4-91.9
		C45.7,93.4,105.4,27,149.6,27c21.2,0,31.3,13.5,31.3,34.1c0,25-14,36.7-14,46.2c0,2.9,2.4,5.8,7.2,5.8c19.2,0,41.9-22.6,41.9-53.4
		S191,6.3,146.7,6.3C73.6,6.3,0,79.9,0,174.2c0,75,37,120.3,101.1,120.3c43.7,0,81.8-34,102.4-73.6c2.3,32.8,17.3,50,40,50
		c20.2,0,36.6-12,49.1-33.2c4.8,22.2,17.6,33,34.1,33c19,0,34.9-12,50.1-34.4c-0.2,17.6,3.8,34.1,19,34.1c7.2,0,15.8-1.7,17.3-8
		c16-66.3,55.7-120.5,67.8-120.5c3.6,0,4.6,3.5,4.6,7.5c0,18-12.7,55-12.7,78.5c0,25.5,10.8,42.3,33.2,42.3
		c24.8,0,50-30.4,66.8-74.8c5.3,41.5,16.6,74.9,34.4,74.9c21.8,0,60.6-46,84.1-94.6c9.2,1.2,23,0.9,36.3-8.5c-5.7,14.3-9,30-9,45.7
		c0,45.2,21.6,57.8,40.1,57.8c20.2,0,36.5-12,49.1-33.2c4.1,19.1,14.7,32.9,34.1,32.9c30.4,0,56.7-31,56.7-56.5
		C898.6,207.4,895.8,203.3,892.4,203.3z M261.9,245.9c-12.3,0-17.1-12.4-17.1-30.8c0-32,21.9-85.4,45-85.4
		c10.1,0,13.9,11.9,13.9,26.5C303.8,188.6,283,245.9,261.9,245.9z M682.1,150.4c-7.3-8.7-10-20.6-10-31.1c0-13,4.8-24,10.5-24
		c5.7,0,7.5,5.6,7.5,13.4C690.1,121.7,685.4,140.8,682.1,150.4z M777.2,245.9c-12.3,0-17.1-14.2-17.1-30.8
		c0-30.9,21.9-85.4,45.2-85.4c10.1,0,13.7,11.8,13.7,26.5C819.1,188.6,798.6,245.9,777.2,245.9z"/>
	
		<radialGradient id="SVGID_00000028300533750960026710000002046099610038773934_" cx="-163.491" cy="713.8433" r="0.4493" gradientTransform="matrix(588.4999 -474.0003 -324.1069 -402.3982 327959.4688 210048.75)" gradientUnits="userSpaceOnUse">
		<stop  offset="0" style="stop-color:#6420FF"/>
		<stop  offset="1" style="stop-color:#6420FF;stop-opacity:0"/>
	</radialGradient>
	<path style="fill:url(#SVGID_00000028300533750960026710000002046099610038773934_);" d="M892.4,203.3c-1.5,0-2.9,1-3.6,3.1
		c-9.2,26.3-21.7,41.9-31.9,41.9c-5.9,0-8.3-6.6-8.3-16.8c0-25.7,15.4-80.3,23.2-105.2c0.9-3,1.5-5.7,1.5-8c0-7.2-4-10.8-13.7-10.8
		c-10.6,0-21.9,4.1-33,23.5c-3.8-17.1-15.4-24.5-31.5-24.5c-18.6,0-36.7,12-51.5,31.5c-14.8,19.5-32.3,25.8-45.4,22.7
		c9.4-23.1,12.9-40.3,12.9-53.2c0-20.1-9.9-32.2-26-32.2c-24.4,0-38.5,23.3-38.5,47.8c0,18.9,8.6,38.4,27.5,47.8
		c-15.8,35.8-38.9,68.1-47.7,68.1c-11.3,0-14.6-55.4-14-95c0.4-22.7,2.3-23.9,2.3-30.8c0-4-2.6-6.6-12.9-6.6
		c-24,0-31.4,20.3-32.5,43.6c-0.4,8.9-1.8,17.7-4.1,26.2c-10,35.8-30.7,62.9-44.2,62.9c-6.2,0-8-6.2-8-14.4
		c0-25.7,14.4-57.9,14.4-85.4c0-20.2-8.9-32.9-25.5-32.9c-19.6,0-45.6,23.4-70.2,67.1c8.1-33.5,11.4-66-12.5-66
		c-5.2,0.1-10.3,1.4-14.9,3.9c-3.1,1.5-5.1,4.7-4.9,8.2c2.3,35.7-28.8,127.1-58.2,127.1c-5.3,0-8-5.8-8-15.1
		c0-25.8,15.4-80.2,23.1-105.2c1-3.2,1.5-6,1.5-8.4c0-6.8-4.2-10.3-13.8-10.3c-10.5,0-21.9,4-32.9,23.4
		c-3.9-17.1-15.4-24.5-31.5-24.5c-26.5,0-56,28-69,64.5c-17.4,48.7-52.4,95.7-99.6,95.7c-42.8,0-65.4-35.6-65.4-91.9
		C45.7,93.4,105.4,27,149.6,27c21.2,0,31.3,13.5,31.3,34.1c0,25-14,36.7-14,46.2c0,2.9,2.4,5.8,7.2,5.8c19.2,0,41.9-22.6,41.9-53.4
		S191,6.3,146.7,6.3C73.6,6.3,0,79.9,0,174.2c0,75,37,120.3,101.1,120.3c43.7,0,81.8-34,102.4-73.6c2.3,32.8,17.3,50,40,50
		c20.2,0,36.6-12,49.1-33.2c4.8,22.2,17.6,33,34.1,33c19,0,34.9-12,50.1-34.4c-0.2,17.6,3.8,34.1,19,34.1c7.2,0,15.8-1.7,17.3-8
		c16-66.3,55.7-120.5,67.8-120.5c3.6,0,4.6,3.5,4.6,7.5c0,18-12.7,55-12.7,78.5c0,25.5,10.8,42.3,33.2,42.3
		c24.8,0,50-30.4,66.8-74.8c5.3,41.5,16.6,74.9,34.4,74.9c21.8,0,60.6-46,84.1-94.6c9.2,1.2,23,0.9,36.3-8.5c-5.7,14.3-9,30-9,45.7
		c0,45.2,21.6,57.8,40.1,57.8c20.2,0,36.5-12,49.1-33.2c4.1,19.1,14.7,32.9,34.1,32.9c30.4,0,56.7-31,56.7-56.5
		C898.6,207.4,895.8,203.3,892.4,203.3z M261.9,245.9c-12.3,0-17.1-12.4-17.1-30.8c0-32,21.9-85.4,45-85.4
		c10.1,0,13.9,11.9,13.9,26.5C303.8,188.6,283,245.9,261.9,245.9z M682.1,150.4c-7.3-8.7-10-20.6-10-31.1c0-13,4.8-24,10.5-24
		c5.7,0,7.5,5.6,7.5,13.4C690.1,121.7,685.4,140.8,682.1,150.4z M777.2,245.9c-12.3,0-17.1-14.2-17.1-30.8
		c0-30.9,21.9-85.4,45.2-85.4c10.1,0,13.7,11.8,13.7,26.5C819.1,188.6,798.6,245.9,777.2,245.9z"/>
	
		<radialGradient id="SVGID_00000083083369472134129380000010321423806520327303_" cx="-163.0327" cy="713.3735" r="0.4493" gradientTransform="matrix(782.9999 -383.9995 -262.5672 -535.3915 314988.6562 319624)" gradientUnits="userSpaceOnUse">
		<stop  offset="0" style="stop-color:#6420FF"/>
		<stop  offset="1" style="stop-color:#6420FF;stop-opacity:0"/>
	</radialGradient>
	<path style="fill:url(#SVGID_00000083083369472134129380000010321423806520327303_);" d="M892.4,203.3c-1.5,0-2.9,1-3.6,3.1
		c-9.2,26.3-21.7,41.9-31.9,41.9c-5.9,0-8.3-6.6-8.3-16.8c0-25.7,15.4-80.3,23.2-105.2c0.9-3,1.5-5.7,1.5-8c0-7.2-4-10.8-13.7-10.8
		c-10.6,0-21.9,4.1-33,23.5c-3.8-17.1-15.4-24.5-31.5-24.5c-18.6,0-36.7,12-51.5,31.5c-14.8,19.5-32.3,25.8-45.4,22.7
		c9.4-23.1,12.9-40.3,12.9-53.2c0-20.1-9.9-32.2-26-32.2c-24.4,0-38.5,23.3-38.5,47.8c0,18.9,8.6,38.4,27.5,47.8
		c-15.8,35.8-38.9,68.1-47.7,68.1c-11.3,0-14.6-55.4-14-95c0.4-22.7,2.3-23.9,2.3-30.8c0-4-2.6-6.6-12.9-6.6
		c-24,0-31.4,20.3-32.5,43.6c-0.4,8.9-1.8,17.7-4.1,26.2c-10,35.8-30.7,62.9-44.2,62.9c-6.2,0-8-6.2-8-14.4
		c0-25.7,14.4-57.9,14.4-85.4c0-20.2-8.9-32.9-25.5-32.9c-19.6,0-45.6,23.4-70.2,67.1c8.1-33.5,11.4-66-12.5-66
		c-5.2,0.1-10.3,1.4-14.9,3.9c-3.1,1.5-5.1,4.7-4.9,8.2c2.3,35.7-28.8,127.1-58.2,127.1c-5.3,0-8-5.8-8-15.1
		c0-25.8,15.4-80.2,23.1-105.2c1-3.2,1.5-6,1.5-8.4c0-6.8-4.2-10.3-13.8-10.3c-10.5,0-21.9,4-32.9,23.4
		c-3.9-17.1-15.4-24.5-31.5-24.5c-26.5,0-56,28-69,64.5c-17.4,48.7-52.4,95.7-99.6,95.7c-42.8,0-65.4-35.6-65.4-91.9
		C45.7,93.4,105.4,27,149.6,27c21.2,0,31.3,13.5,31.3,34.1c0,25-14,36.7-14,46.2c0,2.9,2.4,5.8,7.2,5.8c19.2,0,41.9-22.6,41.9-53.4
		S191,6.3,146.7,6.3C73.6,6.3,0,79.9,0,174.2c0,75,37,120.3,101.1,120.3c43.7,0,81.8-34,102.4-73.6c2.3,32.8,17.3,50,40,50
		c20.2,0,36.6-12,49.1-33.2c4.8,22.2,17.6,33,34.1,33c19,0,34.9-12,50.1-34.4c-0.2,17.6,3.8,34.1,19,34.1c7.2,0,15.8-1.7,17.3-8
		c16-66.3,55.7-120.5,67.8-120.5c3.6,0,4.6,3.5,4.6,7.5c0,18-12.7,55-12.7,78.5c0,25.5,10.8,42.3,33.2,42.3
		c24.8,0,50-30.4,66.8-74.8c5.3,41.5,16.6,74.9,34.4,74.9c21.8,0,60.6-46,84.1-94.6c9.2,1.2,23,0.9,36.3-8.5c-5.7,14.3-9,30-9,45.7
		c0,45.2,21.6,57.8,40.1,57.8c20.2,0,36.5-12,49.1-33.2c4.1,19.1,14.7,32.9,34.1,32.9c30.4,0,56.7-31,56.7-56.5
		C898.6,207.4,895.8,203.3,892.4,203.3z M261.9,245.9c-12.3,0-17.1-12.4-17.1-30.8c0-32,21.9-85.4,45-85.4
		c10.1,0,13.9,11.9,13.9,26.5C303.8,188.6,283,245.9,261.9,245.9z M682.1,150.4c-7.3-8.7-10-20.6-10-31.1c0-13,4.8-24,10.5-24
		c5.7,0,7.5,5.6,7.5,13.4C690.1,121.7,685.4,140.8,682.1,150.4z M777.2,245.9c-12.3,0-17.1-14.2-17.1-30.8
		c0-30.9,21.9-85.4,45.2-85.4c10.1,0,13.7,11.8,13.7,26.5C819.1,188.6,798.6,245.9,777.2,245.9z"/>
	
		<radialGradient id="SVGID_00000051378229362512645750000014230884867233789842_" cx="-163.0839" cy="713.3508" r="0.4493" gradientTransform="matrix(1699.9954 375.999 461.1489 -2084.9814 -51632.8086 1548675.5)" gradientUnits="userSpaceOnUse">
		<stop  offset="0" style="stop-color:#00C4CC;stop-opacity:0.7259"/>
		<stop  offset="0" style="stop-color:#00C4CC"/>
		<stop  offset="1" style="stop-color:#00C4CC;stop-opacity:0"/>
	</radialGradient>
	<path style="fill:url(#SVGID_00000051378229362512645750000014230884867233789842_);" d="M892.4,203.3c-1.5,0-2.9,1-3.6,3.1
		c-9.2,26.3-21.7,41.9-31.9,41.9c-5.9,0-8.3-6.6-8.3-16.8c0-25.7,15.4-80.3,23.2-105.2c0.9-3,1.5-5.7,1.5-8c0-7.2-4-10.8-13.7-10.8
		c-10.6,0-21.9,4.1-33,23.5c-3.8-17.1-15.4-24.5-31.5-24.5c-18.6,0-36.7,12-51.5,31.5c-14.8,19.5-32.3,25.8-45.4,22.7
		c9.4-23.1,12.9-40.3,12.9-53.2c0-20.1-9.9-32.2-26-32.2c-24.4,0-38.5,23.3-38.5,47.8c0,18.9,8.6,38.4,27.5,47.8
		c-15.8,35.8-38.9,68.1-47.7,68.1c-11.3,0-14.6-55.4-14-95c0.4-22.7,2.3-23.9,2.3-30.8c0-4-2.6-6.6-12.9-6.6
		c-24,0-31.4,20.3-32.5,43.6c-0.4,8.9-1.8,17.7-4.1,26.2c-10,35.8-30.7,62.9-44.2,62.9c-6.2,0-8-6.2-8-14.4
		c0-25.7,14.4-57.9,14.4-85.4c0-20.2-8.9-32.9-25.5-32.9c-19.6,0-45.6,23.4-70.2,67.1c8.1-33.5,11.4-66-12.5-66
		c-5.2,0.1-10.3,1.4-14.9,3.9c-3.1,1.5-5.1,4.7-4.9,8.2c2.3,35.7-28.8,127.1-58.2,127.1c-5.3,0-8-5.8-8-15.1
		c0-25.8,15.4-80.2,23.1-105.2c1-3.2,1.5-6,1.5-8.4c0-6.8-4.2-10.3-13.8-10.3c-10.5,0-21.9,4-32.9,23.4
		c-3.9-17.1-15.4-24.5-31.5-24.5c-26.5,0-56,28-69,64.5c-17.4,48.7-52.4,95.7-99.6,95.7c-42.8,0-65.4-35.6-65.4-91.9
		C45.7,93.4,105.4,27,149.6,27c21.2,0,31.3,13.5,31.3,34.1c0,25-14,36.7-14,46.2c0,2.9,2.4,5.8,7.2,5.8c19.2,0,41.9-22.6,41.9-53.4
		S191,6.3,146.7,6.3C73.6,6.3,0,79.9,0,174.2c0,75,37,120.3,101.1,120.3c43.7,0,81.8-34,102.4-73.6c2.3,32.8,17.3,50,40,50
		c20.2,0,36.6-12,49.1-33.2c4.8,22.2,17.6,33,34.1,33c19,0,34.9-12,50.1-34.4c-0.2,17.6,3.8,34.1,19,34.1c7.2,0,15.8-1.7,17.3-8
		c16-66.3,55.7-120.5,67.8-120.5c3.6,0,4.6,3.5,4.6,7.5c0,18-12.7,55-12.7,78.5c0,25.5,10.8,42.3,33.2,42.3
		c24.8,0,50-30.4,66.8-74.8c5.3,41.5,16.6,74.9,34.4,74.9c21.8,0,60.6-46,84.1-94.6c9.2,1.2,23,0.9,36.3-8.5c-5.7,14.3-9,30-9,45.7
		c0,45.2,21.6,57.8,40.1,57.8c20.2,0,36.5-12,49.1-33.2c4.1,19.1,14.7,32.9,34.1,32.9c30.4,0,56.7-31,56.7-56.5
		C898.6,207.4,895.8,203.3,892.4,203.3z M261.9,245.9c-12.3,0-17.1-12.4-17.1-30.8c0-32,21.9-85.4,45-85.4
		c10.1,0,13.9,11.9,13.9,26.5C303.8,188.6,283,245.9,261.9,245.9z M682.1,150.4c-7.3-8.7-10-20.6-10-31.1c0-13,4.8-24,10.5-24
		c5.7,0,7.5,5.6,7.5,13.4C690.1,121.7,685.4,140.8,682.1,150.4z M777.2,245.9c-12.3,0-17.1-14.2-17.1-30.8
		c0-30.9,21.9-85.4,45.2-85.4c10.1,0,13.7,11.8,13.7,26.5C819.1,188.6,798.6,245.9,777.2,245.9z"/>
</g>
</svg>
